HIERARCHY
ROOT Hips
{
	OFFSET 0.00 0.00 0.00
	CHANNELS 6 Xposition Yposition Zposition Xrotation Yrotation Zrotation
	JOINT Spine
	{
		OFFSET 0.00000 9.62115 0.00000
		CHANNELS 3 Xrotation Yrotation Zrotation
		JOINT Head
		{
			OFFSET 0.00000 12.77195 0.00000
			CHANNELS 3 Xrotation Yrotation Zrotation
			End Site
			{
				OFFSET 0.00000 4.52755 0.00000
			}
		}
		JOINT LeftShoulder
		{
			OFFSET 0.00000 7.40057 0.00000
			CHANNELS 3 Xrotation Yrotation Zrotation
			JOINT LeftArm
			{
				OFFSET 8.34930 0.00000 0.00000
				CHANNELS 3 Xrotation Yrotation Zrotation
				JOINT LeftForeArm
				{
					OFFSET 11.33484 0.00000 0.00000
					CHANNELS 3 Yrotation Zrotation Xrotation
					JOINT LeftHand
					{
						OFFSET 9.69418 0.00000 0.00000
						CHANNELS 3 Xrotation Yrotation Zrotation
						JOINT LeftHandThumb1
						{
							OFFSET 0.00000 0.00000 0.00000
							CHANNELS 3 Xrotation Zrotation Yrotation
							End Site
							{
								OFFSET 0.00000 0.00000 3.93700
							}
						}
						End Site
						{
							OFFSET 3.93700 0.00000 0.00000
						}
					}
				}
			}
		}
		JOINT RightShoulder
		{
			OFFSET 0.00000 7.40057 0.00000
			CHANNELS 3 Xrotation Yrotation Zrotation
			JOINT RightArm
			{
				OFFSET -8.34930 0.00000 0.00000
				CHANNELS 3 Xrotation Yrotation Zrotation
				JOINT RightForeArm
				{
					OFFSET -11.33484 0.00000 0.00000
					CHANNELS 3 Yrotation Zrotation Xrotation
					JOINT RightHand
					{
						OFFSET -9.69418 0.00000 0.00000
						CHANNELS 3 Xrotation Yrotation Zrotation
						JOINT RightHandThumb1
						{
							OFFSET 0.00000 0.00000 0.00000
							CHANNELS 3 Xrotation Zrotation Yrotation
							End Site
							{
								OFFSET 0.00000 0.00000 3.93700
							}
						}
						End Site
						{
							OFFSET -3.93700 0.00000 0.00000
						}
					}
				}
			}
		}
	}
	JOINT LeftUpLeg
	{
		OFFSET 2.70060 0.00000 0.00000
		CHANNELS 3 Xrotation Yrotation Zrotation
		JOINT LeftLeg
		{
			OFFSET 0.00000 -16.75718 0.00000
			CHANNELS 3 Xrotation Yrotation Zrotation
			JOINT LeftFoot
			{
				OFFSET 0.00000 -16.75915 0.00000
				CHANNELS 3 Xrotation Yrotation Zrotation
				JOINT LeftToeBase
				{
					OFFSET 0.00000 -1.51183 5.64225
					CHANNELS 3 Xrotation Yrotation Zrotation
					End Site
					{
						OFFSET 0.00000 0.00000 2.95275
					}
				}
			}
		}
	}
	JOINT RightUpLeg
	{
		OFFSET -2.70060 0.00000 0.00000
		CHANNELS 3 Xrotation Yrotation Zrotation
		JOINT RightLeg
		{
			OFFSET 0.00000 -16.75718 0.00000
			CHANNELS 3 Xrotation Yrotation Zrotation
			JOINT RightFoot
			{
				OFFSET 0.00000 -16.75915 0.00000
				CHANNELS 3 Xrotation Yrotation Zrotation
				JOINT RightToeBase
				{
					OFFSET 0.00000 -1.51183 5.64225
					CHANNELS 3 Xrotation Yrotation Zrotation
					End Site
					{
						OFFSET 0.00000 0.00000 2.95275
					}
				}
			}
		}
	}
}
MOTION
Frames:	12
Frame Time: 0.008333
-10.3473 36.6286 -18.2763 155.8427 -33.4030 -166.7621 22.3080 -11.1150 -1.7464 25.1997 -27.4746 -19.1468 5.6534 17.6730 1.7018 -10.4469 -33.1779 -72.4954 -59.2376 0.0000 15.8350 0.6096 14.1175 -2.4979 32.8623 0.0000 24.3270 -4.6559 -10.0982 -30.6225 -64.8567 -20.8691 36.0112 116.0413 0.0000 -29.7336 -8.1384 -11.0537 -36.7181 33.1476 -0.0000 -26.2537 4.0331 19.4439 4.1562 70.2422 -0.0000 -0.0000 18.9273 12.5152 -30.0169 -6.8490 0.0000 -0.0000 -30.9427 -12.7542 -19.8795 10.3205 -0.0000 -0.0000 -16.3914 -26.4404 -4.9621 12.7030 -0.0000 -0.0000
-10.3847 36.6416 -18.2617 156.0957 -33.5647 -166.3250 22.3225 -11.2696 -1.9162 25.1050 -27.4552 -19.4512 5.7314 17.7070 1.6533 -10.4140 -33.4637 -72.3646 -59.2737 0.0000 15.9226 0.6410 14.1085 -2.6278 32.8623 0.0000 24.3270 -4.7064 -10.1554 -30.6741 -64.6705 -20.7497 35.9455 115.8824 -0.0000 -29.7944 -8.0917 -10.9926 -36.7083 33.1476 -0.0000 -26.2537 4.0706 20.3682 4.3839 70.2906 -0.0000 -0.0000 18.9929 12.4115 -30.3245 -6.7603 0.0000 -0.0000 -30.9514 -12.9661 -20.3507 10.3112 -0.0000 -0.0000 -16.3974 -26.3504 -5.0474 12.6948 -0.0000 -0.0000
-10.4269 36.6563 -18.2449 156.2573 -33.6402 -165.9289 22.2737 -11.3615 -2.0890 24.9172 -27.3639 -19.8018 5.8618 17.7941 1.5492 -10.4283 -33.7533 -72.2581 -59.3348 -0.0000 15.9454 0.7007 14.0441 -2.8853 32.8623 0.0000 24.3270 -4.7553 -10.2030 -30.7276 -64.5969 -20.6694 35.8399 115.7250 0.0000 -30.1345 -8.0017 -10.9565 -36.4868 33.1476 -0.0000 -26.2537 4.1505 21.2963 4.5960 70.3368 -0.0000 -0.0000 19.1761 12.6218 -30.7986 -7.0285 0.0000 -0.0000 -30.9651 -13.0142 -20.7713 10.2676 -0.0000 -0.0000 -16.3826 -26.3463 -5.0363 12.7126 -0.0000 -0.0000
-10.4589 36.6714 -18.2263 156.3214 -33.6742 -165.6826 22.1931 -11.3530 -2.0864 24.6080 -27.3920 -20.3261 5.9171 17.8066 1.3832 -10.3004 -34.0295 -72.1097 -59.4577 -0.0000 15.9989 0.7400 14.0483 -3.0459 32.8623 0.0000 24.3270 -4.9051 -10.2021 -30.8768 -64.4335 -20.5365 35.6948 115.5666 0.0000 -30.0895 -8.0200 -10.9855 -36.4785 33.1476 -0.0000 -26.2537 4.1675 22.2205 4.9786 70.4042 -0.0000 -0.0000 19.3902 12.8676 -31.4258 -7.1253 0.0000 -0.0000 -30.9409 -12.9671 -21.0288 10.1381 -0.0000 -0.0000 -16.3176 -26.4329 -4.9675 12.7592 -0.0000 -0.0000
-10.4839 36.6862 -18.2055 156.3602 -33.6771 -165.4884 22.1501 -11.2989 -2.0682 24.2583 -27.3891 -20.7279 5.9324 17.8175 1.2603 -10.2223 -34.2689 -72.0450 -59.5921 -0.0000 16.0976 0.7687 14.1311 -3.1456 32.8623 0.0000 24.3270 -4.9832 -10.1755 -30.9758 -64.3891 -20.4879 35.3705 115.4392 0.0000 -30.2024 -8.0284 -10.9681 -36.5504 33.1476 -0.0000 -26.2537 4.2062 23.0748 5.4331 70.4831 -0.0000 -0.0000 19.6017 13.0149 -31.8735 -7.1420 0.0000 -0.0000 -30.8220 -12.7743 -21.1859 9.9355 -0.0000 -0.0000 -16.1807 -26.6188 -5.0645 12.6642 -0.0000 -0.0000
-10.5319 36.7104 -18.1840 156.3812 -33.6165 -165.1689 22.0659 -11.2471 -2.1257 23.8194 -27.4333 -21.3542 6.0367 17.8107 1.0266 -10.1339 -34.4793 -71.9023 -59.7489 0.0000 16.1757 0.8142 13.9709 -3.3687 32.8623 0.0000 24.3270 -5.0836 -10.1885 -31.0920 -64.4481 -20.4185 35.0867 115.3509 0.0000 -30.6995 -7.8911 -10.9090 -36.2185 33.1476 -0.0000 -26.2537 4.4618 23.9057 5.6931 70.4452 -0.0000 -0.0000 19.7888 13.0742 -32.0286 -7.1679 0.0000 -0.0000 -30.7269 -12.4489 -21.4805 9.7382 -0.0000 -0.0000 -16.0646 -26.8643 -4.9353 12.7725 -0.0000 -0.0000
-10.5807 36.7329 -18.1555 156.3847 -33.5630 -164.8660 22.0328 -11.2059 -2.1877 23.3034 -27.4375 -21.7988 6.0115 17.8545 0.9064 -10.0689 -34.7264 -71.8834 -59.8947 -0.0000 16.2202 0.8597 13.8449 -3.5881 32.8623 0.0000 24.3270 -5.0457 -10.2825 -31.1833 -64.6661 -20.3741 34.7408 115.2416 0.0000 -30.9389 -7.8853 -10.8742 -36.2843 33.1476 -0.0000 -26.2537 4.7707 24.6246 5.9754 70.4190 -0.0000 -0.0000 19.9098 13.0129 -32.1431 -7.0611 0.0000 -0.0000 -30.6486 -12.0947 -21.7732 9.5630 -0.0000 -0.0000 -15.9079 -27.0837 -4.8835 12.7457 -0.0000 -0.0000
-10.6216 36.7559 -18.1225 156.3819 -33.5526 -164.5726 22.0190 -11.2333 -2.2371 22.7944 -27.2699 -22.3175 5.9841 17.8715 0.8443 -10.0528 -34.8608 -71.9172 -60.0381 -0.0000 16.4788 0.9419 13.6165 -3.9947 32.8623 0.0000 24.3270 -4.9970 -10.2991 -31.2524 -64.9780 -20.4338 34.2946 115.1523 0.0000 -31.3511 -7.8196 -10.7984 -36.2416 33.1476 -0.0000 -26.2537 5.0800 25.2087 6.3139 70.4019 -0.0000 -0.0000 20.0158 12.7656 -32.0501 -6.9884 0.0000 -0.0000 -30.6451 -11.8368 -22.0886 9.4316 -0.0000 -0.0000 -15.7709 -27.2364 -4.7540 12.7793 -0.0000 -0.0000
-10.6696 36.7807 -18.0869 156.3742 -33.5593 -164.2190 21.9982 -11.2938 -2.3241 22.2489 -27.2290 -22.7276 6.0295 17.8989 0.7712 -10.1211 -35.0296 -71.9626 -60.1749 -0.0000 16.7266 0.9869 13.3306 -4.2729 32.8623 0.0000 24.3270 -4.9557 -10.3937 -31.3331 -65.3039 -20.4369 33.9360 115.0747 -0.0000 -31.6115 -7.8208 -10.7581 -36.3471 33.1476 -0.0000 -26.2537 5.5194 25.7081 6.5892 70.3078 -0.0000 -0.0000 20.1356 12.4934 -31.9371 -7.2014 0.0000 -0.0000 -30.6786 -11.5585 -22.4900 9.3342 -0.0000 -0.0000 -15.6516 -27.3593 -4.6592 12.8246 -0.0000 -0.0000
-10.7054 36.8009 -18.0544 156.3751 -33.6376 -163.9224 21.9824 -11.4112 -2.3203 21.7605 -27.0733 -23.1957 6.1279 17.9356 0.6922 -10.2467 -35.2337 -71.9903 -60.3178 0.0000 16.8428 1.0188 13.2045 -4.4517 32.8623 0.0000 24.3270 -4.9737 -10.4206 -31.4217 -65.5121 -20.4044 33.5470 115.0013 0.0000 -31.6216 -7.8575 -10.6985 -36.6272 33.1476 -0.0000 -26.2537 5.9394 26.0401 6.9899 70.2054 -0.0000 -0.0000 20.2503 12.1653 -31.8481 -7.4261 0.0000 -0.0000 -30.7137 -11.3831 -22.8515 9.2403 -0.0000 -0.0000 -15.4935 -27.4461 -4.6393 12.6710 -0.0000 -0.0000
-10.7335 36.8204 -18.0167 156.3455 -33.7954 -163.6315 21.9364 -11.5650 -2.3876 21.3355 -27.0322 -23.4177 5.9903 17.9456 0.8040 -10.1847 -35.5303 -72.0851 -60.5946 -0.0000 16.5867 0.9912 13.7067 -4.1762 32.8623 0.0000 24.3270 -4.9753 -10.5123 -31.3957 -65.7965 -20.3578 33.1775 114.9160 0.0000 -31.5922 -7.9296 -10.6944 -36.8916 33.1476 -0.0000 -26.2537 6.3526 26.2865 7.4418 70.0760 -0.0000 -0.0000 20.1988 11.8695 -31.6397 -7.4684 0.0000 -0.0000 -30.8636 -11.3166 -23.2707 9.1797 -0.0000 -0.0000 -15.4324 -27.5285 -4.5331 12.7668 -0.0000 -0.0000
-10.7578 36.8372 -17.9752 156.2933 -33.9480 -163.3443 21.8823 -11.7297 -2.5012 20.9607 -26.8196 -23.5445 5.9015 17.9757 0.9702 -10.2301 -35.7177 -72.2295 -60.8084 0.0000 16.6017 0.9889 13.6628 -4.1794 32.8623 0.0000 24.3270 -4.9439 -10.6267 -31.3278 -66.1606 -20.3524 32.8092 114.8431 -0.0000 -31.7482 -7.9458 -10.5920 -37.2107 33.1476 -0.0000 -26.2537 6.7644 26.5333 7.9810 69.9224 -0.0000 -0.0000 20.2234 11.6177 -31.5706 -7.5612 0.0000 -0.0000 -31.0826 -11.2655 -23.7035 9.1930 -0.0000 -0.0000 -15.3386 -27.4520 -4.5391 12.6802 -0.0000 -0.0000
